<svg xmlns="http://www.w3.org/2000/svg" viewBox="0 0 120 120" fill="none" stroke="currentColor" stroke-width="1.4" stroke-linecap="round" stroke-linejoin="round">
  <title>Rivana motif — girih (interlaced star strapwork)</title>
  
  <polygon points="60,16 104,60 60,104 16,60"></polygon>
  <polygon points="31,31 89,31 89,89 31,89"></polygon>
  
  <path d="M60 16 V0"></path>
  <path d="M104 60 H120"></path>
  <path d="M60 104 V120"></path>
  <path d="M16 60 H0"></path>
  
  <path d="M89 31 L120 0"></path>
  <path d="M89 89 L120 120"></path>
  <path d="M31 89 L0 120"></path>
  <path d="M31 31 L0 0"></path>
  
  <circle cx="60" cy="60" r="11"></circle>
  <circle cx="60" cy="60" r="2.6" fill="currentColor" stroke="none"></circle>
  <g fill="currentColor" stroke="none">
    <circle cx="60" cy="2.5" r="1.3"></circle>
    <circle cx="117.5" cy="60" r="1.3"></circle>
    <circle cx="60" cy="117.5" r="1.3"></circle>
    <circle cx="2.5" cy="60" r="1.3"></circle>
  </g>
</svg>